<?xml version="1.0" standalone="no"?>
<!DOCTYPE svg PUBLIC "-//W3C//DTD SVG 20010904//EN"
 "http://www.w3.org/TR/2001/REC-SVG-20010904/DTD/svg10.dtd">
<svg version="1.0" xmlns="http://www.w3.org/2000/svg"
 width="512.000000pt" height="512.000000pt" viewBox="0 0 512.000000 512.000000"
 preserveAspectRatio="xMidYMid meet">

<g transform="translate(0.000000,512.000000) scale(0.100000,-0.100000)"
fill="#000000" stroke="none">
<path d="M955 4853 c-93 -126 -169 -235 -169 -243 1 -8 414 -706 919 -1550
505 -844 970 -1626 1033 -1737 l114 -203 249 0 250 0 -12 23 c-88 169 -1025
1799 -1312 2282 -466 785 -425 710 -411 732 26 42 35 43 621 43 l561 0 101
174 c56 96 101 179 101 184 0 5 -145 12 -327 16 -783 16 -1688 37 -1690 40 -2
2 128 6 289 10 161 3 641 16 1066 27 426 11 781 18 789 15 36 -14 3 -85 -252
-541 -246 -441 -256 -461 -242 -485 8 -14 63 -114 122 -223 59 -109 111 -195
115 -190 5 4 230 373 500 818 439 722 543 890 500 805 -7 -14 -222 -409 -477
-879 -255 -470 -463 -859 -461 -866 5 -22 261 -475 268 -475 6 0 1133 1955
1137 1975 2 5 -73 114 -165 240 l-168 230 -1440 3 -1441 2 -168 -227z"/>
<path d="M1770 4071 c0 -7 1084 -1899 1626 -2839 52 -89 94 -170 94 -181 0
-10 -8 -25 -18 -34 -17 -15 -72 -17 -584 -17 l-564 0 -108 -196 c-58 -108
-105 -198 -104 -200 4 -4 2222 -53 2226 -49 1 1 -408 695 -911 1541 -502 847
-971 1639 -1041 1762 l-128 222 -244 0 c-142 0 -244 -4 -244 -9z"/>
<path d="M1346 1549 c-312 -545 -565 -996 -563 -1003 7 -18 327 -461 335 -463
4 -2 247 441 541 982 l533 986 -127 232 c-70 127 -133 238 -139 245 -9 9 -138
-208 -580 -979z"/>
<path d="M2243 1908 c-16 -20 -1113 -1857 -1113 -1863 0 -3 647 -4 1437 -3
l1438 3 167 240 168 240 -64 3 c-35 2 -560 -6 -1166 -18 -759 -14 -1107 -17
-1121 -10 -29 16 -33 53 -10 97 11 22 130 232 265 466 136 235 246 432 246
438 0 10 -190 348 -225 402 -10 14 -14 15 -22 5z"/>
</g>
</svg>
